<svg xmlns="http://www.w3.org/2000/svg" viewBox="0 0 800 600">
  <defs>
    <linearGradient id="bg" x1="0" y1="0" x2="1" y2="1">
      <stop offset="0" stop-color="#10141f"/>
      <stop offset="1" stop-color="#0a0a12"/>
    </linearGradient>
    <radialGradient id="glow1" cx="0.5" cy="0.4" r="0.7">
      <stop offset="0" stop-color="#e63946" stop-opacity="0.45"/>
      <stop offset="1" stop-color="#e63946" stop-opacity="0"/>
    </radialGradient>
    <radialGradient id="glow2" cx="0.2" cy="0.8" r="0.55">
      <stop offset="0" stop-color="#2a9d8f" stop-opacity="0.4"/>
      <stop offset="1" stop-color="#2a9d8f" stop-opacity="0"/>
    </radialGradient>
    <filter id="blur" x="-60%" y="-60%" width="220%" height="220%">
      <feGaussianBlur stdDeviation="55"/>
    </filter>
  </defs>
  <rect width="800" height="600" fill="url(#bg)"/>
  <circle cx="400" cy="240" r="210" fill="url(#glow1)" filter="url(#blur)"/>
  <circle cx="150" cy="480" r="170" fill="url(#glow2)" filter="url(#blur)"/>
  <g transform="translate(400,250)" stroke-width="5" stroke-linecap="round">
    <circle r="95" fill="#e63946"/>
    <circle r="78" fill="none" stroke="#ffe0e3" opacity="0.85" stroke-width="4"/>
    <circle r="55" fill="none" stroke="#c1121f" stroke-width="9"/>
    <text y="10" text-anchor="middle" font-family="Segoe UI, Arial, sans-serif" font-size="30" font-weight="700" fill="#0a0a12">2 4</text>
  </g>
  <g stroke="#ffd166" stroke-width="4" fill="none" stroke-linecap="round">
    <g transform="translate(600,140)"><line x1="-45" y1="0" x2="45" y2="0"/><line x1="0" y1="-45" x2="0" y2="45"/><line x1="-32" y1="-32" x2="32" y2="32"/><line x1="-32" y1="32" x2="32" y2="-32"/></g>
    <g transform="translate(150,180)"><line x1="-30" y1="0" x2="30" y2="0"/><line x1="0" y1="-30" x2="0" y2="30"/><line x1="-21" y1="-21" x2="21" y2="21"/><line x1="-21" y1="21" x2="21" y2="-21"/></g>
    <g transform="translate(680,380)"><line x1="-20" y1="0" x2="20" y2="0"/><line x1="0" y1="-20" x2="0" y2="20"/><line x1="-14" y1="-14" x2="14" y2="14"/><line x1="-14" y1="14" x2="14" y2="-14"/></g>
  </g>
  <g stroke="#ffe0e3" stroke-width="3" opacity="0.7" stroke-linecap="round">
    <line x1="200" y1="320" x2="205" y2="265"/>
    <line x1="205" y1="265" x2="212" y2="240"/>
    <circle cx="214" cy="232" r="7" fill="#ffe0e3"/>
  </g>
  <text x="400" y="492" text-anchor="middle" font-family="Segoe UI, Arial, sans-serif" font-size="42" font-weight="700" letter-spacing="10" fill="#e8e8f0">JULY MOMENTS</text>
  <text x="400" y="530" text-anchor="middle" font-family="Segoe UI, Arial, sans-serif" font-size="15" letter-spacing="5" fill="#8888a0">REMEMBER · HONOR · 2024</text>
</svg>